# xmcd
#
# Track frame offsets: 
#        150
#        15639
#        32478
#        39908
#        56147
#        75444
#        91946
#        107760
#        121739
#        139706
#        153832
#        167260
#        180087
#
# Disc length: 2557 seconds
#
# Revision: 0
# Processed by: cddbd v1.5.2PL0 Copyright (c) Steve Scherf et al.
# Submitted via: ExactAudioCopy v0.95b3
#
DISCID=8409fb0d
DTITLE=Simone White - I Am The Man
DYEAR=2007
DGENRE=Blues
TTITLE0=I Didn't Have Any Summer Romance
TTITLE1=Worm Was Wood
TTITLE2=The Beep Beep Song
TTITLE3=The American War
TTITLE4=Roses Are Not Red
TTITLE5=Great Imperialist State
TTITLE6=Mary Jane
TTITLE7=You May Be In Darkness
TTITLE8=Sweetest Love Song
TTITLE9=We Used To Stand So Tall
TTITLE10=Why Is Your Raincoat Always Crying?
TTITLE11=Only The Moon
TTITLE12=I Am The Man
EXTD=
EXTT0=
EXTT1=
EXTT2=
EXTT3=
EXTT4=
EXTT5=
EXTT6=
EXTT7=
EXTT8=
EXTT9=
EXTT10=
EXTT11=
EXTT12=
PLAYORDER=
